<svg xmlns="http://www.w3.org/2000/svg" viewBox="0 0 720 220" role="img" aria-labelledby="title desc">
  <title id="title">CupCast AI logo</title>
  <desc id="desc">Original CupCast AI sports technology logo with a football, globe grid, forecast line, and text lockup.</desc>
  <defs>
    <linearGradient id="ballGlow" x1="36" y1="32" x2="178" y2="176" gradientUnits="userSpaceOnUse">
      <stop stop-color="#38BDF8"/>
      <stop offset=".56" stop-color="#22D3EE"/>
      <stop offset="1" stop-color="#A3E635"/>
    </linearGradient>
    <linearGradient id="wordGlow" x1="220" y1="68" x2="548" y2="150" gradientUnits="userSpaceOnUse">
      <stop stop-color="#F8FAFC"/>
      <stop offset=".68" stop-color="#DFF8FF"/>
      <stop offset="1" stop-color="#A3E635"/>
    </linearGradient>
    <filter id="softShadow" x="-20%" y="-20%" width="140%" height="140%">
      <feDropShadow dx="0" dy="14" stdDeviation="12" flood-color="#020617" flood-opacity=".32"/>
    </filter>
  </defs>
  <rect width="720" height="220" fill="none"/>
  <g filter="url(#softShadow)">
    <circle cx="110" cy="110" r="78" fill="#10172A" stroke="url(#ballGlow)" stroke-width="5"/>
    <circle cx="110" cy="110" r="59" fill="none" stroke="#38BDF8" stroke-opacity=".35" stroke-width="2"/>
    <path d="M52 110h116M110 52c-21 20-32 39-32 58s11 38 32 58M110 52c21 20 32 39 32 58s-11 38-32 58" fill="none" stroke="#38BDF8" stroke-opacity=".36" stroke-width="2" stroke-linecap="round"/>
    <path d="M70 128l26-23 22 14 31-44" fill="none" stroke="#A3E635" stroke-width="7" stroke-linecap="round" stroke-linejoin="round"/>
    <circle cx="70" cy="128" r="6" fill="#A3E635"/>
    <circle cx="96" cy="105" r="6" fill="#A3E635"/>
    <circle cx="118" cy="119" r="6" fill="#A3E635"/>
    <circle cx="149" cy="75" r="6" fill="#A3E635"/>
    <path d="M57 72l20 13-8 24H44l-8-24 21-13ZM110 59l25 19-10 30H95L85 78l25-19ZM164 106l16 17-10 27h-25l-9-27 28-17Z" fill="#0B1020" stroke="#22D3EE" stroke-opacity=".78" stroke-width="3" stroke-linejoin="round"/>
    <path d="M177 68c18 4 31 13 39 27M185 43c29 6 51 22 65 49" fill="none" stroke="#38BDF8" stroke-width="5" stroke-linecap="round" opacity=".82"/>
    <path d="M177 152c18-4 31-13 39-27M185 177c29-6 51-22 65-49" fill="none" stroke="#A3E635" stroke-width="5" stroke-linecap="round" opacity=".72"/>
  </g>
  <g>
    <text x="230" y="105" fill="url(#wordGlow)" font-family="Inter, Arial, sans-serif" font-size="56" font-weight="900" letter-spacing=".5">CupCast AI</text>
    <text x="233" y="145" fill="#94A3B8" font-family="Inter, Arial, sans-serif" font-size="20" font-weight="700" letter-spacing="4">FOOTBALL FORECASTING ENGINE</text>
    <path d="M235 169h232" stroke="#38BDF8" stroke-width="3" stroke-linecap="round" opacity=".55"/>
    <path d="M235 169h126" stroke="#A3E635" stroke-width="5" stroke-linecap="round"/>
    <circle cx="496" cy="169" r="5" fill="#22D3EE"/>
    <circle cx="523" cy="169" r="5" fill="#38BDF8" opacity=".8"/>
    <circle cx="550" cy="169" r="5" fill="#A3E635"/>
  </g>
</svg>
