<svg xmlns="http://www.w3.org/2000/svg" viewBox="0 0 360 360" role="img" aria-labelledby="title desc">
  <title id="title">CupCast AI keeper mascot</title>
  <desc id="desc">Original shield bear goalkeeper mascot in a defensive stance with gloves, neon outlines, and a shield chest emblem.</desc>
  <defs>
    <linearGradient id="keeperBody" x1="93" y1="65" x2="246" y2="298" gradientUnits="userSpaceOnUse">
      <stop stop-color="#1E293B"/>
      <stop offset=".58" stop-color="#10172A"/>
      <stop offset="1" stop-color="#0B1020"/>
    </linearGradient>
    <linearGradient id="glove" x1="42" y1="116" x2="119" y2="221" gradientUnits="userSpaceOnUse">
      <stop stop-color="#F8FAFC"/>
      <stop offset="1" stop-color="#B6EAF8"/>
    </linearGradient>
  </defs>
  <rect width="360" height="360" fill="none"/>
  <ellipse cx="180" cy="324" rx="112" ry="19" fill="#020617" opacity=".3"/>
  <circle cx="116" cy="84" r="28" fill="#10172A" stroke="#38BDF8" stroke-width="4"/>
  <circle cx="232" cy="84" r="28" fill="#10172A" stroke="#38BDF8" stroke-width="4"/>
  <path d="M103 91c10-43 133-43 143 0 8 34-5 71-35 88-22 12-51 12-73 0-30-17-43-54-35-88Z" fill="url(#keeperBody)" stroke="#38BDF8" stroke-width="4"/>
  <path d="M139 121c10-10 22-10 32 0M202 121c10-10 22-10 32 0" fill="none" stroke="#A3E635" stroke-width="4" stroke-linecap="round"/>
  <circle cx="151" cy="139" r="8" fill="#A3E635"/>
  <circle cx="216" cy="139" r="8" fill="#A3E635"/>
  <path d="M178 150h13l-6 10Z" fill="#22D3EE"/>
  <path d="M160 173c15 8 37 8 51 0" fill="none" stroke="#F8FAFC" stroke-width="4" stroke-linecap="round"/>
  <path d="M112 190l71-28 72 28 15 78-49 47h-80l-48-47Z" fill="#10172A" stroke="#22D3EE" stroke-width="4" stroke-linejoin="round"/>
  <path d="M181 201l40 16v36c0 22-16 39-40 50-24-11-40-28-40-50v-36l40-16Z" fill="#0B1020" stroke="#A3E635" stroke-width="4" stroke-linejoin="round"/>
  <path d="M161 245l15 15 28-37" fill="none" stroke="#38BDF8" stroke-width="6" stroke-linecap="round" stroke-linejoin="round"/>
  <path d="M125 205l-54-35 17-37 58 31" fill="#10172A" stroke="#38BDF8" stroke-width="4" stroke-linecap="round" stroke-linejoin="round"/>
  <path d="M71 126c-17-1-31 10-35 28l-8 39c-3 14 6 26 20 28l34 4c18 2 32-11 34-28l4-39c2-17-11-31-28-33Z" fill="url(#glove)" stroke="#38BDF8" stroke-width="4" stroke-linejoin="round"/>
  <path d="M61 140l-9 70M81 137l-8 77M101 145l-7 61" stroke="#0B1020" stroke-opacity=".55" stroke-width="4" stroke-linecap="round"/>
  <path d="M241 205l55-35-18-37-58 31" fill="#10172A" stroke="#38BDF8" stroke-width="4" stroke-linecap="round" stroke-linejoin="round"/>
  <path d="M294 126c17-1 31 10 35 28l8 39c3 14-6 26-20 28l-34 4c-18 2-32-11-34-28l-4-39c-2-17 11-31 28-33Z" fill="url(#glove)" stroke="#38BDF8" stroke-width="4" stroke-linejoin="round"/>
  <path d="M304 140l9 70M284 137l8 77M264 145l7 61" stroke="#0B1020" stroke-opacity=".55" stroke-width="4" stroke-linecap="round"/>
  <path d="M143 309l-33 19M221 309l35 19" stroke="#38BDF8" stroke-width="8" stroke-linecap="round"/>
  <path d="M103 327h51M209 327h51" stroke="#A3E635" stroke-width="7" stroke-linecap="round"/>
  <path d="M84 62c-24 27-37 60-39 98M276 62c24 27 37 60 39 98" fill="none" stroke="#22D3EE" stroke-width="4" stroke-linecap="round" opacity=".44"/>
</svg>
